<svg width="96" height="70" viewBox="0 0 96 70" fill="none" xmlns="http://www.w3.org/2000/svg">
<rect width="96" height="70" fill="white"/>
<path d="M45.8452 55.6877L30.4791 15.3551L27 14.5897V14.0009H41.7862V14.5897L48.7936 27.6728C42.5007 29.1957 41.7409 25.6839 39.8704 21.5086C39.3341 22.0449 38.2616 23.6537 38.2616 25.7988C38.2616 29.9892 43.7875 28.2335 48.0776 32.5236C51.7539 36.1999 46.8418 45.9029 46.8418 52.0758C46.8418 45.6406 52.5486 35.886 54.4647 32.0551C63.2325 14.5259 46.8002 14 46.8418 14L53.4992 14.0009H69.1552V14.5897L65.5601 15.3551L50.252 55.6877H45.8452Z" fill="#420216"/>
</svg>
