<svg width="1200" height="630" viewBox="0 0 1200 630" fill="none" xmlns="http://www.w3.org/2000/svg">
<rect width="1200" height="630" fill="#150F25"/>
<path d="M935.497 306.318C933.307 306.318 931.321 305.879 929.539 305.003C927.757 304.127 926.209 302.944 924.895 301.455C923.61 299.936 922.617 298.242 921.916 296.372C921.215 294.474 920.864 292.532 920.864 290.546C920.864 288.472 921.229 286.5 921.96 284.631C922.719 282.732 923.756 281.053 925.07 279.593C926.414 278.103 927.976 276.935 929.758 276.088C931.54 275.212 933.482 274.773 935.585 274.773C937.775 274.773 939.762 275.226 941.543 276.132C943.325 277.037 944.858 278.249 946.143 279.768C947.429 281.287 948.422 282.981 949.123 284.85C949.824 286.719 950.174 288.632 950.174 290.589C950.174 292.663 949.809 294.649 949.079 296.548C948.349 298.417 947.312 300.096 945.968 301.586C944.654 303.046 943.106 304.2 941.324 305.047C939.542 305.894 937.6 306.318 935.497 306.318ZM924.851 290.546C924.851 292.123 925.099 293.656 925.596 295.146C926.122 296.606 926.852 297.906 927.786 299.045C928.721 300.184 929.846 301.089 931.16 301.761C932.474 302.433 933.935 302.769 935.541 302.769C937.206 302.769 938.695 302.418 940.01 301.717C941.324 301.016 942.434 300.082 943.339 298.913C944.274 297.745 944.975 296.431 945.442 294.97C945.939 293.51 946.187 292.035 946.187 290.546C946.187 288.968 945.924 287.45 945.399 285.989C944.902 284.529 944.172 283.229 943.208 282.09C942.273 280.922 941.149 280.016 939.835 279.374C938.549 278.702 937.118 278.366 935.541 278.366C933.876 278.366 932.387 278.716 931.072 279.417C929.758 280.089 928.633 281.009 927.699 282.178C926.793 283.346 926.092 284.66 925.596 286.121C925.099 287.552 924.851 289.027 924.851 290.546Z" fill="#F5FBFF"/>
<path d="M892.984 306.099V275.037H896.927V292.211L912.962 274.993H917.212L904.726 288.706L917.913 306.099H913.488L902.229 291.072L896.927 296.592V306.099H892.984Z" fill="#F5FBFF"/>
<path d="M882.462 274.993V306.099H878.519V291.948H861.388V306.099H857.445V274.993H861.388V288.443H878.519V274.993H882.462Z" fill="#F5FBFF"/>
<path d="M845.948 281.52C845.598 281.111 845.131 280.717 844.546 280.337C843.962 279.958 843.305 279.622 842.575 279.33C841.845 279.009 841.041 278.76 840.165 278.585C839.318 278.381 838.427 278.278 837.493 278.278C835.098 278.278 833.331 278.731 832.192 279.636C831.052 280.542 830.483 281.783 830.483 283.36C830.483 284.47 830.775 285.347 831.359 285.989C831.943 286.632 832.834 287.157 834.032 287.566C835.258 287.975 836.806 288.399 838.676 288.837C840.837 289.304 842.706 289.874 844.283 290.546C845.861 291.217 847.073 292.123 847.92 293.262C848.767 294.372 849.19 295.861 849.19 297.731C849.19 299.22 848.898 300.52 848.314 301.63C847.759 302.71 846.971 303.616 845.948 304.346C844.926 305.047 843.729 305.573 842.356 305.923C840.983 306.245 839.493 306.405 837.887 306.405C836.31 306.405 834.762 306.245 833.243 305.923C831.753 305.573 830.337 305.076 828.993 304.434C827.65 303.791 826.394 302.988 825.226 302.024L827.109 298.694C827.577 299.191 828.176 299.687 828.906 300.184C829.665 300.651 830.512 301.089 831.447 301.498C832.411 301.907 833.447 302.243 834.557 302.506C835.667 302.74 836.806 302.856 837.975 302.856C840.194 302.856 841.918 302.462 843.144 301.674C844.371 300.856 844.984 299.673 844.984 298.125C844.984 296.957 844.634 296.022 843.933 295.321C843.261 294.62 842.254 294.036 840.91 293.568C839.566 293.101 837.931 292.634 836.003 292.167C833.9 291.641 832.133 291.071 830.702 290.458C829.271 289.815 828.19 288.983 827.46 287.961C826.759 286.938 826.408 285.609 826.408 283.974C826.408 281.988 826.89 280.308 827.854 278.936C828.818 277.563 830.147 276.526 831.841 275.825C833.535 275.124 835.448 274.773 837.58 274.773C838.982 274.773 840.282 274.919 841.48 275.212C842.706 275.504 843.845 275.913 844.897 276.438C845.948 276.964 846.912 277.592 847.788 278.322L845.948 281.52Z" fill="#F5FBFF"/>
<path d="M819.203 302.594V306.099H798.086V274.993H818.809V278.498H802.029V288.575H816.618V291.861H802.029V302.594H819.203Z" fill="#F5FBFF"/>
<path d="M766.225 306.099V274.993H779.543C780.916 274.993 782.172 275.285 783.311 275.869C784.45 276.424 785.443 277.184 786.29 278.148C787.137 279.082 787.794 280.148 788.262 281.346C788.729 282.514 788.963 283.712 788.963 284.938C788.963 286.369 788.685 287.728 788.13 289.013C787.605 290.298 786.845 291.393 785.852 292.299C784.888 293.204 783.749 293.832 782.435 294.183L789.97 306.099H785.502L778.404 294.927H770.168V306.099H766.225ZM770.168 291.422H779.587C780.668 291.422 781.602 291.13 782.391 290.546C783.209 289.933 783.837 289.13 784.275 288.137C784.742 287.143 784.976 286.077 784.976 284.938C784.976 283.77 784.713 282.704 784.187 281.74C783.662 280.747 782.975 279.958 782.128 279.374C781.281 278.79 780.346 278.498 779.324 278.498H770.168V291.422Z" fill="#F5FBFF"/>
<path d="M743.008 306.318C740.817 306.318 738.831 305.879 737.05 305.003C735.268 304.127 733.72 302.944 732.406 301.455C731.121 299.936 730.127 298.242 729.426 296.372C728.725 294.474 728.375 292.532 728.375 290.546C728.375 288.472 728.74 286.5 729.47 284.631C730.23 282.732 731.267 281.053 732.581 279.593C733.924 278.103 735.487 276.935 737.269 276.088C739.05 275.212 740.993 274.773 743.096 274.773C745.286 274.773 747.272 275.226 749.054 276.132C750.836 277.037 752.369 278.249 753.654 279.768C754.939 281.287 755.932 282.981 756.633 284.85C757.334 286.719 757.685 288.632 757.685 290.589C757.685 292.663 757.32 294.649 756.589 296.548C755.859 298.417 754.822 300.096 753.479 301.586C752.165 303.046 750.617 304.2 748.835 305.047C747.053 305.894 745.111 306.318 743.008 306.318ZM732.362 290.546C732.362 292.123 732.61 293.656 733.107 295.146C733.632 296.606 734.363 297.906 735.297 299.045C736.232 300.184 737.356 301.089 738.671 301.761C739.985 302.433 741.445 302.769 743.052 302.769C744.717 302.769 746.206 302.418 747.521 301.717C748.835 301.016 749.945 300.082 750.85 298.913C751.785 297.745 752.486 296.431 752.953 294.97C753.45 293.51 753.698 292.035 753.698 290.546C753.698 288.968 753.435 287.45 752.909 285.989C752.413 284.529 751.683 283.229 750.719 282.09C749.784 280.922 748.66 280.016 747.345 279.374C746.06 278.702 744.629 278.366 743.052 278.366C741.387 278.366 739.897 278.716 738.583 279.417C737.269 280.089 736.144 281.009 735.21 282.178C734.304 283.346 733.603 284.66 733.107 286.121C732.61 287.552 732.362 289.027 732.362 290.546Z" fill="#F5FBFF"/>
<path d="M700.495 306.099V275.037H704.438V292.211L720.473 274.993H724.723L712.237 288.706L725.424 306.099H720.999L709.739 291.072L704.438 296.592V306.099H700.495Z" fill="#F5FBFF"/>
<path d="M677.273 306.318C675.082 306.318 673.096 305.879 671.314 305.003C669.533 304.127 667.985 302.944 666.67 301.455C665.385 299.936 664.392 298.242 663.691 296.372C662.99 294.474 662.64 292.532 662.64 290.546C662.64 288.472 663.005 286.5 663.735 284.631C664.494 282.732 665.531 281.053 666.846 279.593C668.189 278.103 669.752 276.935 671.533 276.088C673.315 275.212 675.257 274.773 677.36 274.773C679.551 274.773 681.537 275.226 683.319 276.132C685.1 277.037 686.634 278.249 687.919 279.768C689.204 281.287 690.197 282.981 690.898 284.85C691.599 286.719 691.949 288.632 691.949 290.589C691.949 292.663 691.584 294.649 690.854 296.548C690.124 298.417 689.087 300.096 687.744 301.586C686.429 303.046 684.881 304.2 683.1 305.047C681.318 305.894 679.376 306.318 677.273 306.318ZM666.626 290.546C666.626 292.123 666.875 293.656 667.371 295.146C667.897 296.606 668.627 297.906 669.562 299.045C670.496 300.184 671.621 301.089 672.935 301.761C674.25 302.433 675.71 302.769 677.316 302.769C678.981 302.769 680.471 302.418 681.785 301.717C683.1 301.016 684.209 300.082 685.115 298.913C686.049 297.745 686.75 296.431 687.218 294.97C687.714 293.51 687.963 292.035 687.963 290.546C687.963 288.968 687.7 287.45 687.174 285.989C686.677 284.529 685.947 283.229 684.983 282.09C684.049 280.922 682.924 280.016 681.61 279.374C680.325 278.702 678.894 278.366 677.316 278.366C675.652 278.366 674.162 278.716 672.848 279.417C671.533 280.089 670.409 281.009 669.474 282.178C668.569 283.346 667.868 284.66 667.371 286.121C666.875 287.552 666.626 289.027 666.626 290.546Z" fill="#F5FBFF"/>
<path d="M628.623 274.993H631.953L644.658 306.099H640.452L636.772 296.986H623.716L620.08 306.099H615.874L628.623 274.993ZM635.896 293.92L630.288 279.55L624.505 293.92H635.896Z" fill="#F5FBFF"/>
<path d="M586.325 282.266V306.099H582.382V274.993H585.711L604.726 299.308V275.037H608.669V306.099H605.076L586.325 282.266Z" fill="#F5FBFF"/>
<path d="M551.786 274.993L561.205 291.203L570.712 274.993H575.006L563.177 294.752V306.099H559.233V294.664L547.448 274.993H551.786Z" fill="#F5FBFF"/>
<path d="M543.056 278.498H532.322V306.099H528.379V278.498H517.646V274.993H543.056V278.498Z" fill="#F5FBFF"/>
<path d="M487.786 282.266V306.099H483.843V274.993H487.172L506.187 299.308V275.037H510.13V306.099H506.537L487.786 282.266Z" fill="#F5FBFF"/>
<path d="M475.371 302.594V306.099H454.254V274.993H474.977V278.498H458.197V288.575H472.786V291.861H458.197V302.594H475.371Z" fill="#F5FBFF"/>
<path d="M425.6 306.099V274.993H429.543V302.594H446.892V306.099H425.6Z" fill="#F5FBFF"/>
<path d="M402.345 274.993H405.674L418.38 306.099H414.174L410.494 296.986H397.438L393.802 306.099H389.596L402.345 274.993ZM409.617 293.92L404.01 279.55L398.227 293.92H409.617Z" fill="#F5FBFF"/>
<path d="M363.437 274.993L373.733 301.149L383.985 274.993H388.147L375.529 306.099H371.937L359.275 274.993H363.437Z" fill="#F5FBFF"/>
<path d="M711.96 326.468C714.442 326.468 716.377 327.307 717.765 328.987C719.176 330.666 719.882 333.149 719.882 336.435C719.882 338.625 719.554 340.487 718.897 342.021C718.239 343.53 717.302 344.674 716.085 345.453C714.893 346.232 713.457 346.621 711.777 346.621C710.633 346.621 709.635 346.451 708.783 346.11C707.932 345.769 707.226 345.319 706.666 344.759C706.106 344.199 705.668 343.579 705.352 342.897H705.206C705.254 343.506 705.291 344.175 705.315 344.905C705.339 345.611 705.352 346.268 705.352 346.877V354.872H703.271V326.833H704.986L705.242 330.484H705.352C705.668 329.778 706.118 329.121 706.702 328.512C707.287 327.904 708.005 327.417 708.856 327.052C709.733 326.662 710.767 326.468 711.96 326.468ZM711.668 328.257C710.232 328.257 709.051 328.561 708.126 329.169C707.201 329.778 706.508 330.679 706.045 331.871C705.583 333.039 705.352 334.488 705.352 336.216V336.581C705.352 338.406 705.571 339.94 706.009 341.181C706.471 342.398 707.153 343.311 708.053 343.919C708.978 344.528 710.134 344.832 711.522 344.832C712.885 344.832 714.016 344.503 714.917 343.846C715.842 343.165 716.536 342.203 716.998 340.962C717.485 339.696 717.728 338.187 717.728 336.435C717.728 333.782 717.229 331.762 716.231 330.374C715.233 328.963 713.712 328.257 711.668 328.257Z" fill="#F5FBFF"/>
<path d="M683.166 326.468C684.845 326.468 686.232 326.857 687.328 327.636C688.447 328.391 689.287 329.437 689.847 330.776C690.431 332.115 690.723 333.66 690.723 335.413V336.8H676.849C676.849 339.404 677.446 341.388 678.638 342.751C679.855 344.114 681.571 344.796 683.786 344.796C685.003 344.796 686.062 344.698 686.962 344.503C687.863 344.309 688.849 343.968 689.92 343.481V345.38C688.946 345.818 687.985 346.134 687.036 346.329C686.086 346.524 684.979 346.621 683.713 346.621C681.79 346.621 680.147 346.219 678.784 345.416C677.446 344.613 676.423 343.469 675.718 341.984C675.036 340.475 674.695 338.723 674.695 336.727C674.695 334.731 675.024 332.966 675.681 331.433C676.338 329.9 677.3 328.695 678.565 327.819C679.831 326.918 681.364 326.468 683.166 326.468ZM683.166 328.22C681.364 328.22 679.916 328.817 678.821 330.009C677.726 331.177 677.081 332.869 676.886 335.084H688.569C688.569 333.721 688.374 332.528 687.985 331.506C687.595 330.484 686.999 329.681 686.196 329.096C685.417 328.512 684.407 328.22 683.166 328.22Z" fill="#F5FBFF"/>
<path d="M648.105 326.833V335.267H660.008V326.833H662.089V346.256H660.008V337.056H648.105V346.256H646.024V326.833H648.105Z" fill="#F5FBFF"/>
<path d="M630.533 319.021C630.46 320.165 630.18 321.127 629.694 321.906C629.231 322.66 628.562 323.22 627.686 323.585C626.809 323.95 625.726 324.133 624.436 324.133C623.146 324.133 622.063 323.95 621.187 323.585C620.335 323.22 619.69 322.66 619.252 321.906C618.838 321.151 618.583 320.19 618.485 319.021H620.457C620.578 320.336 620.943 321.261 621.552 321.796C622.185 322.332 623.158 322.599 624.473 322.599C625.714 322.599 626.675 322.332 627.357 321.796C628.038 321.261 628.428 320.336 628.525 319.021H630.533ZM618.485 340.379C618.485 340.623 618.485 340.903 618.485 341.219C618.485 341.536 618.473 341.864 618.449 342.205C618.449 342.521 618.437 342.838 618.412 343.154C618.388 343.446 618.376 343.726 618.376 343.994L629.73 326.835H632.286V346.258H630.314V332.713C630.314 332.347 630.314 331.946 630.314 331.508C630.314 331.07 630.326 330.631 630.351 330.193C630.375 329.755 630.387 329.378 630.387 329.062L619.033 346.258H616.514V326.835H618.485V340.379Z" fill="#F5FBFF"/>
<path d="M596.5 326.508C598.691 326.508 600.322 327.043 601.393 328.114C602.464 329.185 602.999 330.889 602.999 333.226V346.259H601.429L601.064 342.974H600.954C600.492 343.704 599.957 344.349 599.348 344.909C598.764 345.444 598.046 345.87 597.194 346.186C596.366 346.478 595.344 346.625 594.127 346.625C592.91 346.625 591.851 346.418 590.951 346.004C590.05 345.566 589.357 344.945 588.87 344.142C588.383 343.339 588.14 342.353 588.14 341.185C588.14 339.262 588.931 337.801 590.513 336.803C592.095 335.781 594.395 335.197 597.413 335.051L600.954 334.905V333.518C600.954 331.595 600.565 330.244 599.786 329.465C599.032 328.662 597.9 328.26 596.391 328.26C595.393 328.26 594.431 328.394 593.507 328.662C592.606 328.905 591.693 329.258 590.768 329.721L590.111 328.078C591.012 327.615 592.01 327.238 593.105 326.946C594.2 326.654 595.332 326.508 596.5 326.508ZM597.632 336.584C595.174 336.706 593.336 337.144 592.119 337.899C590.902 338.629 590.294 339.736 590.294 341.221C590.294 342.414 590.671 343.326 591.425 343.959C592.18 344.568 593.202 344.872 594.492 344.872C596.561 344.872 598.143 344.3 599.239 343.156C600.358 342.012 600.93 340.406 600.954 338.337V336.438L597.632 336.584Z" fill="#F5FBFF"/>
<path d="M570.144 326.468C571.507 326.468 572.676 326.675 573.649 327.088C574.623 327.478 575.365 328.05 575.876 328.804C576.387 329.535 576.643 330.435 576.643 331.506C576.643 332.626 576.339 333.551 575.73 334.281C575.122 335.011 574.27 335.534 573.175 335.851V335.924C574.051 336.143 574.793 336.471 575.402 336.909C576.035 337.348 576.509 337.895 576.826 338.552C577.166 339.185 577.337 339.94 577.337 340.816C577.337 341.984 577.032 343.007 576.424 343.883C575.84 344.759 574.976 345.441 573.832 345.927C572.712 346.39 571.349 346.621 569.743 346.621C568.867 346.621 568.039 346.56 567.26 346.438C566.481 346.341 565.775 346.195 565.143 346C564.534 345.806 563.999 345.587 563.536 345.343V343.372C564.412 343.81 565.362 344.175 566.384 344.467C567.406 344.735 568.514 344.869 569.706 344.869C570.777 344.869 571.726 344.722 572.554 344.43C573.406 344.114 574.063 343.652 574.525 343.043C575.012 342.435 575.256 341.656 575.256 340.706C575.256 339.806 575.037 339.076 574.598 338.516C574.16 337.956 573.515 337.554 572.663 337.311C571.836 337.043 570.789 336.909 569.524 336.909H566.931V335.157H569.268C570.899 335.157 572.201 334.877 573.175 334.317C574.148 333.757 574.635 332.857 574.635 331.616C574.635 330.52 574.233 329.693 573.43 329.133C572.651 328.549 571.52 328.257 570.035 328.257C568.988 328.257 568.051 328.378 567.224 328.622C566.396 328.841 565.532 329.157 564.631 329.571L563.901 327.855C564.826 327.417 565.788 327.076 566.785 326.833C567.808 326.589 568.927 326.468 570.144 326.468Z" fill="#F5FBFF"/>
<path d="M538.037 340.378C538.037 340.621 538.037 340.901 538.037 341.218C538.037 341.534 538.025 341.863 538 342.203C538 342.52 537.988 342.836 537.964 343.153C537.94 343.445 537.927 343.725 537.927 343.992L549.282 326.833H551.837V346.256H549.866V332.711C549.866 332.346 549.866 331.944 549.866 331.506C549.866 331.068 549.878 330.63 549.902 330.192C549.927 329.754 549.939 329.376 549.939 329.06L538.585 346.256H536.065V326.833H538.037V340.378Z" fill="#F5FBFF"/>
<path d="M522.053 326.833V344.467H524.718V352.864H522.674V346.256H508.107V352.864H506.099V344.467H507.449C508.545 342.934 509.458 341.242 510.188 339.392C510.918 337.542 511.478 335.559 511.867 333.441C512.257 331.324 512.463 329.121 512.488 326.833H522.053ZM514.386 328.549C514.289 330.593 514.046 332.577 513.656 334.5C513.267 336.398 512.743 338.187 512.086 339.867C511.429 341.546 510.626 343.08 509.677 344.467H520.045V328.549H514.386Z" fill="#F5FBFF"/>
<path d="M478.971 346.254V319.055H481.344V346.254H478.971Z" fill="#F5FBFF"/>
<path d="M455.559 346.692C453.685 346.692 452.042 346.291 450.63 345.488C449.219 344.684 448.111 343.577 447.308 342.165C446.529 340.729 446.14 339.086 446.14 337.236V319.055H448.513V337.309C448.513 338.721 448.805 339.975 449.389 341.07C449.997 342.141 450.825 342.981 451.872 343.589C452.943 344.198 454.172 344.502 455.559 344.502C456.946 344.502 458.163 344.198 459.21 343.589C460.281 342.981 461.109 342.141 461.693 341.07C462.277 339.975 462.569 338.721 462.569 337.309V319.055H464.942V337.236C464.942 339.086 464.553 340.729 463.774 342.165C462.995 343.577 461.9 344.684 460.488 345.488C459.076 346.291 457.433 346.692 455.559 346.692Z" fill="#F5FBFF"/>
<path d="M420.542 350.64L432.882 320.52H435.474L423.134 350.64H420.542Z" fill="#F5FBFF"/>
<path d="M392.146 346.254L400.945 332.344L392.475 319.055H395.25L402.661 330.774H402.041L409.452 319.055H412.19L403.72 332.344L412.592 346.254H409.817L402.041 333.914H402.661L394.885 346.254H392.146Z" fill="#F5FBFF"/>
<path d="M371.544 346.692C369.67 346.692 368.027 346.291 366.616 345.488C365.204 344.684 364.097 343.577 363.293 342.165C362.514 340.729 362.125 339.086 362.125 337.236V319.055H364.498V337.309C364.498 338.721 364.79 339.975 365.374 341.07C365.983 342.141 366.81 342.981 367.857 343.589C368.928 344.198 370.157 344.502 371.544 344.502C372.932 344.502 374.149 344.198 375.195 343.589C376.266 342.981 377.094 342.141 377.678 341.07C378.262 339.975 378.554 338.721 378.554 337.309V319.055H380.927V337.236C380.927 339.086 380.538 340.729 379.759 342.165C378.98 343.577 377.885 344.684 376.473 345.488C375.062 346.291 373.419 346.692 371.544 346.692Z" fill="#F5FBFF"/>
<path d="M297.86 352.649L253.943 237.377L244 235.189V233.507H286.26V235.189L306.287 272.581C288.302 276.934 286.13 266.897 280.784 254.964C279.251 256.497 276.186 261.095 276.186 267.225C276.186 279.202 291.979 274.184 304.241 286.445C314.748 296.952 300.709 324.684 300.709 342.326C300.709 323.934 317.019 296.055 322.495 285.106C347.554 235.007 300.59 233.504 300.709 233.504L319.736 233.507H364.481V235.189L354.206 237.377L310.455 352.649H297.86Z" fill="#F5FBFF"/>
</svg>
